<mxfile host="app.diagrams.net" modified="2024-03-07T18:08:56.600Z" agent="Mozilla/5.0 (X11; Linux x86_64) AppleWebKit/537.36 (KHTML, like Gecko) Chrome/122.0.0.0 Safari/537.36" version="24.0.1" etag="HCYk9TS2FFh0z8ONQAbn" type="github">
  <diagram name="Page-1" id="SjQAdK_OS_gNisBgjSGl">
    <mxGraphModel>
      <root>
        <mxCell id="0" />
        <mxCell id="1" parent="0" />
      </root>
    </mxGraphModel>
  </diagram>
</mxfile>
